
<svg width="200px" height="159px" viewBox="0 0 200 159" version="1.1" xmlns="http://www.w3.org/2000/svg" xmlns:xlink="http://www.w3.org/1999/xlink">
    <g id="page-1" stroke="none" stroke-width="1" fill="none" fill-rule="evenodd">
        <g id="folder" fill-rule="nonzero">
            <path d="M200,29.5665922 L200,118.566592 C199.691059,125.342649 193.968239,130.597432 187.190476,130.328497 L53.8571428,130.328497 C49.9726919,130.556312 46.2189176,128.886515 43.7869969,125.84898 C41.3550762,122.811445 40.5469457,118.783298 41.6190477,115.042783 L62.8095238,53.1380209 L11.7619047,53.1380209 C5.58817156,53.4351071 0.333328149,48.6908557 0,42.5189732 L0,10.7570684 C0.333328252,4.58518596 5.58817163,-0.159065308 11.7619047,0.138020898 L75.0476191,0.138020898 C79.4101837,0.0291567134 83.4905607,2.28793687 85.7142857,6.04278281 L92.0952381,17.6618303 L187.333333,17.6618303 C194.109756,17.4746093 199.767022,22.7915882 200,29.5665922 Z" id="路径" fill="#5398DF"></path>
            <path d="M9.52380957,29.4713541 L190.47619,29.4713541 C196.825397,29.4713541 200,32.6459573 200,38.9951637 L200,149.423735 C200,155.772942 196.825397,158.947545 190.47619,158.947545 L9.52380957,158.947545 C3.17460319,158.947545 -4.26325641e-14,155.772942 -4.26325641e-14,149.423735 L-4.26325641e-14,38.9951637 C-4.26325641e-14,32.6459573 3.17460319,29.4713541 9.52380957,29.4713541 Z" id="路径" fill="#85BCFF"></path>
        </g>
    </g>
</svg>
