<?xml version="1.0" encoding="UTF-8"?>
<svg width="40px" height="40px" viewBox="0 0 40 40" version="1.1" xmlns="http://www.w3.org/2000/svg" xmlns:xlink="http://www.w3.org/1999/xlink">
    <!-- Generator: Sketch 53 (72520) - https://sketchapp.com -->
    <title>icon_logo</title>
    <desc>Created with Sketch.</desc>
    <g id="Page-1" stroke="none" stroke-width="1" fill="none" fill-rule="evenodd">
        <g id="Portal-icon对照表_blue" transform="translate(-1219.000000, -430.000000)">
            <g id="icon_logo" transform="translate(1219.000000, 430.000000)">
                <rect id="矩形" x="0" y="0" width="40" height="40"></rect>
                <path d="M38.9517728,8.1834597 C38.8862718,8.06776923 38.7466188,7.95963643 38.4948109,8.01486555 C38.0047897,8.12270767 32.2873603,17.1148803 20.0019161,16.8660586 L19.9978995,16.8660586 C17.6642738,16.9131487 15.5685525,16.6274106 13.7008486,16.1329647 L12.7013412,12.9148511 C12.7013412,12.9148511 12.5036025,12.1154823 11.6848407,11.7064962 C11.1181956,11.4268624 10.7885282,11.5163917 10.7190106,11.5945845 C10.6572173,11.6678358 10.669267,11.7466099 10.669267,11.7466099 L11.1762814,15.2931914 C4.91507059,12.769802 1.85722684,8.09363971 1.50407787,8.01486555 C1.25226998,7.95963643 1.11385288,8.06776923 1.04742504,8.1834597 C0.943303247,8.36949463 1.0430995,8.63168761 1.0430995,8.63168761 C2.80946231,13.5825421 6.62087592,17.4892756 11.5550746,19.5722854 L12.9148373,28.1528558 C13.0075273,30.5997965 14.746392,32 17.0067926,32 L23.7706924,32 C26.031093,32 27.7239217,30.4692814 27.8635747,28.1528558 L29.1037671,21.0573674 C29.1037671,21.0573674 29.1244679,20.9594084 29.0617476,20.9184226 C28.9857418,20.8733672 28.3962332,20.8565078 27.2036217,21.6881421 C26.0103922,22.5203577 25.6071906,23.7217364 25.6071906,23.7217364 C25.6071906,23.7217364 24.3181814,26.6727154 23.9801718,27.9331021 C23.6223883,29.2609264 22.0414055,29.1426198 22.0414055,29.1426198 L18.4159899,29.1426198 C17.207312,29.1426198 17.0827984,28.1211718 17.0827984,28.1211718 L14.821162,20.6364634 C16.4685726,21.0277181 18.200949,21.2338099 19.9978995,21.2265429 L20.0019161,21.2265429 C28.8853276,21.2602618 36.274885,16.1431385 38.9570252,8.63168761 C38.9570252,8.63168761 39.0571304,8.36949463 38.9517728,8.1834597" id="七牛" fill="#00A7E1"></path>
            </g>
        </g>
    </g>
</svg>