<svg width="78" height="22" xmlns="http://www.w3.org/2000/svg" xmlns:xlink="http://www.w3.org/1999/xlink"><defs><path id="a" d="M0 0h30.52v20.33H0z"/></defs><g fill="none" fill-rule="evenodd"><g transform="translate(0 .08)"><mask id="b" fill="#fff"><use xlink:href="#a"/></mask><path d="M30.52.236c-.513-.177-.938.038-1.182.221A18.392 18.392 0 0115.26 6.991c-1.94 0-3.809-.3-5.564-.855C9.238 4.477 8.915 3.3 8.915 3.3s-.38-1.156-1.665-.958l.37 2.995A18.495 18.495 0 011.183.456C.939.275.513.06 0 .237A16.343 16.343 0 008.092 9.16l1.013 8.202s.453 3.138 3.397 3.138H18.8c2.945 0 3.397-3.138 3.397-3.138l.712-5.878c-1.912-.155-3.115 1.177-3.496 2.492-.64 2.214-.64 2.356-.766 2.742-.258.79-1.107.885-1.107.885h-3.778s-.849-.094-1.107-.885c-.167-.51-.998-3.488-1.835-6.51 1.412.399 2.901.613 4.44.613 6.99 0 12.949-4.403 15.26-10.585" fill="#00A6E0" mask="url(#b)"/></g><path d="M77.835 12.624v-2.203H64.11v2.203h2.525l-1.952 4.908h-.034v2.203h11.743c.737-.053 1.4-.709 1.4-1.388 0-.338-.109-.723-.132-.8h.002l-.994-2.738h-2.43l.988 2.723h-8.16l1.952-4.908h8.816zm-21.374-3.3h4.893v-2.15h-4.893v-2.18h-2.203v2.18h-3.384l.283-1.616h-2.303l-1.177 6.729h.937c.311-.031 1.359-.23 1.624-1.476l.26-1.487h3.76v6.563h-6.57v2.203h6.57v2.167h2.203V18.09h5.449v-2.203h-5.449V9.324zM35.712 5.017H33.51v2.147h-2.188v2.22h2.188v8.967c.063.74.656 1.33 1.399 1.384h8.653a1.518 1.518 0 001.447-1.428v-3.505H42.81v2.678h-7.097V9.385h9.827v-2.22h-9.827V5.016zm28.972 2.664h12.552v-2.15H64.684v2.15z" fill="#00A6E0"/></g></svg>
